<svg id="svg" version="1.1" xmlns="http://www.w3.org/2000/svg" xmlns:xlink="http://www.w3.org/1999/xlink" width="400" height="400" viewBox="0, 0, 400,400"><g id="svgg"><path id="path0" d="M184.000 0.800 C 184.000 1.046,182.008 1.200,178.824 1.200 C 175.804 1.200,173.544 1.367,173.400 1.600 C 173.264 1.820,171.993 2.000,170.576 2.000 C 169.125 2.000,168.000 2.175,168.000 2.400 C 168.000 2.620,167.046 2.800,165.880 2.800 C 164.714 2.800,163.589 2.970,163.380 3.179 C 163.171 3.387,162.223 3.603,161.274 3.658 C 160.325 3.714,159.460 3.904,159.351 4.080 C 159.242 4.256,158.389 4.400,157.456 4.400 C 156.523 4.400,155.589 4.565,155.380 4.766 C 155.171 4.967,154.460 5.185,153.800 5.250 C 153.140 5.316,152.408 5.506,152.173 5.673 C 151.939 5.840,151.174 6.020,150.473 6.073 C 149.773 6.127,149.200 6.312,149.200 6.485 C 149.200 6.658,148.675 6.800,148.033 6.800 C 147.392 6.800,146.807 6.972,146.733 7.182 C 146.660 7.393,145.925 7.610,145.100 7.664 C 144.275 7.719,143.600 7.907,143.600 8.082 C 143.600 8.257,143.161 8.400,142.624 8.400 C 142.087 8.400,141.536 8.580,141.400 8.800 C 141.264 9.020,140.623 9.200,139.976 9.200 C 139.329 9.200,138.800 9.342,138.800 9.515 C 138.800 9.688,138.409 9.859,137.930 9.895 C 137.452 9.931,136.597 10.133,136.030 10.343 C 134.647 10.856,133.635 11.178,133.392 11.181 C 133.282 11.183,132.655 11.461,132.000 11.800 C 131.345 12.139,130.671 12.418,130.504 12.420 C 129.673 12.429,127.204 13.270,126.989 13.617 C 126.855 13.835,126.590 13.917,126.400 13.800 C 126.210 13.683,125.942 13.770,125.804 13.993 C 125.666 14.217,125.218 14.400,124.810 14.400 C 124.401 14.400,124.007 14.535,123.933 14.700 C 123.860 14.865,122.270 15.621,120.400 16.379 C 118.530 17.138,116.460 18.082,115.800 18.478 C 115.140 18.873,114.285 19.198,113.900 19.199 C 113.515 19.199,113.200 19.380,113.200 19.600 C 113.200 19.820,112.840 20.000,112.400 20.000 C 111.960 20.000,111.600 20.180,111.600 20.400 C 111.600 20.620,111.240 20.800,110.800 20.800 C 110.360 20.800,110.000 20.980,110.000 21.200 C 110.000 21.420,109.640 21.600,109.200 21.600 C 108.760 21.600,108.400 21.780,108.400 22.000 C 108.400 22.220,108.055 22.400,107.633 22.400 C 107.212 22.400,106.807 22.535,106.733 22.700 C 106.660 22.865,105.745 23.433,104.700 23.963 C 103.655 24.492,102.800 25.077,102.800 25.263 C 102.800 25.448,102.551 25.600,102.246 25.600 C 101.941 25.600,101.266 25.828,100.746 26.106 C 98.623 27.242,93.767 30.215,93.298 30.665 C 93.021 30.931,92.436 31.262,91.998 31.401 C 91.559 31.540,91.200 31.800,91.200 31.978 C 91.200 32.157,90.660 32.527,90.000 32.800 C 89.340 33.073,88.800 33.443,88.800 33.622 C 88.800 33.800,88.449 34.057,88.020 34.194 C 87.592 34.330,86.682 34.963,86.000 35.600 C 85.318 36.237,84.408 36.870,83.980 37.006 C 83.551 37.143,83.200 37.422,83.200 37.627 C 83.200 37.832,82.970 38.000,82.688 38.000 C 82.407 38.000,81.917 38.360,81.600 38.800 C 81.283 39.240,80.793 39.600,80.512 39.600 C 80.230 39.600,80.000 39.780,80.000 40.000 C 80.000 40.220,79.794 40.400,79.543 40.400 C 79.292 40.400,78.571 40.940,77.940 41.600 C 77.309 42.260,76.606 42.800,76.378 42.800 C 76.150 42.800,75.545 43.205,75.033 43.700 C 73.626 45.061,71.064 47.279,69.604 48.400 C 68.217 49.465,61.052 56.400,61.339 56.400 C 61.433 56.400,60.225 57.715,58.655 59.323 C 57.085 60.931,55.738 62.203,55.661 62.151 C 55.504 62.043,52.000 65.487,52.000 65.749 C 52.000 65.843,51.415 66.538,50.700 67.293 C 49.985 68.048,48.590 69.613,47.600 70.770 C 46.610 71.928,45.395 73.335,44.900 73.896 C 44.405 74.458,43.998 75.026,43.997 75.158 C 43.995 75.291,43.365 76.063,42.597 76.873 C 41.828 77.684,41.200 78.447,41.200 78.569 C 41.200 78.790,40.246 80.020,39.300 81.016 C 39.025 81.306,38.800 81.696,38.800 81.883 C 38.800 82.070,38.440 82.483,38.000 82.800 C 37.560 83.117,37.200 83.607,37.200 83.888 C 37.200 84.170,37.020 84.400,36.800 84.400 C 36.580 84.400,36.400 84.670,36.400 85.000 C 36.400 85.330,36.220 85.600,36.000 85.600 C 35.780 85.600,35.600 85.832,35.600 86.115 C 35.600 86.398,35.067 87.253,34.416 88.015 C 33.765 88.777,33.225 89.597,33.216 89.838 C 33.207 90.079,32.840 90.602,32.400 91.000 C 31.960 91.398,31.600 91.884,31.600 92.079 C 31.600 92.274,31.414 92.651,31.186 92.917 C 30.142 94.135,27.708 98.231,27.868 98.500 C 27.967 98.665,27.857 98.800,27.624 98.800 C 27.391 98.800,27.200 99.070,27.200 99.400 C 27.200 99.730,27.020 100.000,26.800 100.000 C 26.580 100.000,26.400 100.270,26.400 100.600 C 26.400 100.930,26.220 101.200,26.000 101.200 C 25.780 101.200,25.600 101.453,25.600 101.762 C 25.600 102.428,23.932 105.741,23.500 105.933 C 23.335 106.007,23.200 106.412,23.200 106.833 C 23.200 107.255,23.048 107.600,22.863 107.600 C 22.677 107.600,22.116 108.455,21.616 109.500 C 21.115 110.545,20.367 112.092,19.953 112.938 C 19.539 113.784,19.200 114.729,19.200 115.038 C 19.200 115.347,19.065 115.601,18.900 115.603 C 18.597 115.606,17.600 117.497,17.600 118.070 C 17.600 118.240,17.060 119.559,16.400 121.000 C 15.740 122.441,15.200 123.762,15.200 123.935 C 15.200 124.108,14.840 124.995,14.400 125.906 C 13.960 126.816,13.600 127.810,13.600 128.114 C 13.600 128.418,13.465 128.802,13.300 128.967 C 13.135 129.132,12.994 129.387,12.986 129.533 C 12.978 129.680,12.751 130.198,12.480 130.684 C 12.210 131.170,12.021 131.710,12.059 131.884 C 12.098 132.058,11.904 132.740,11.629 133.400 C 11.355 134.060,11.031 135.230,10.909 136.000 C 10.788 136.770,10.566 137.580,10.417 137.800 C 10.267 138.020,9.914 139.010,9.633 140.000 C 9.352 140.990,8.960 142.113,8.761 142.495 C 8.562 142.877,8.400 143.642,8.400 144.195 C 8.400 144.748,8.257 145.200,8.082 145.200 C 7.907 145.200,7.719 145.875,7.664 146.700 C 7.610 147.525,7.393 148.260,7.182 148.333 C 6.972 148.407,6.800 149.071,6.800 149.810 C 6.800 150.548,6.659 151.240,6.487 151.346 C 6.315 151.452,6.129 152.135,6.074 152.863 C 6.018 153.591,5.799 154.361,5.587 154.573 C 5.374 154.786,5.200 155.723,5.200 156.656 C 5.200 157.589,5.020 158.464,4.800 158.600 C 4.580 158.736,4.400 159.636,4.400 160.600 C 4.400 161.564,4.220 162.464,4.000 162.600 C 3.780 162.736,3.600 163.827,3.600 165.024 C 3.600 166.221,3.420 167.200,3.200 167.200 C 2.969 167.200,2.800 168.459,2.800 170.176 C 2.800 171.813,2.620 173.264,2.400 173.400 C 2.169 173.542,2.000 175.671,2.000 178.424 C 2.000 181.341,1.844 183.200,1.600 183.200 C 1.340 183.200,1.200 188.933,1.200 199.600 C 1.200 210.267,1.340 216.000,1.600 216.000 C 1.846 216.000,2.000 217.992,2.000 221.176 C 2.000 224.196,2.167 226.456,2.400 226.600 C 2.620 226.736,2.800 228.187,2.800 229.824 C 2.800 231.541,2.969 232.800,3.200 232.800 C 3.420 232.800,3.600 233.779,3.600 234.976 C 3.600 236.173,3.780 237.264,4.000 237.400 C 4.220 237.536,4.400 238.436,4.400 239.400 C 4.400 240.364,4.580 241.264,4.800 241.400 C 5.020 241.536,5.200 242.436,5.200 243.400 C 5.200 244.364,5.380 245.264,5.600 245.400 C 5.820 245.536,6.000 246.436,6.000 247.400 C 6.000 248.364,6.180 249.264,6.400 249.400 C 6.620 249.536,6.800 250.072,6.800 250.590 C 6.800 251.109,6.972 251.593,7.182 251.667 C 7.393 251.740,7.610 252.475,7.664 253.300 C 7.719 254.125,7.907 254.800,8.082 254.800 C 8.257 254.800,8.400 255.340,8.400 256.000 C 8.400 256.660,8.580 257.200,8.800 257.200 C 9.020 257.200,9.200 257.742,9.200 258.405 C 9.200 259.068,9.364 259.923,9.564 260.305 C 9.765 260.687,10.414 262.620,11.008 264.600 C 11.601 266.580,12.247 268.371,12.443 268.580 C 12.639 268.789,12.800 269.363,12.800 269.856 C 12.800 270.349,12.980 270.864,13.200 271.000 C 13.420 271.136,13.600 271.515,13.600 271.843 C 13.600 272.171,13.960 273.184,14.400 274.094 C 14.840 275.005,15.200 275.893,15.200 276.068 C 15.200 276.242,15.938 277.963,16.839 279.893 C 17.741 281.822,18.626 283.760,18.806 284.200 C 18.986 284.640,19.372 285.585,19.664 286.300 C 19.956 287.015,20.331 287.600,20.498 287.600 C 20.664 287.600,20.800 287.945,20.800 288.367 C 20.800 288.788,20.937 289.193,21.105 289.267 C 21.273 289.340,22.398 291.379,23.605 293.797 C 25.557 297.707,30.214 305.937,31.076 307.000 C 31.254 307.220,31.655 307.895,31.968 308.500 C 32.280 309.105,32.685 309.600,32.868 309.600 C 33.050 309.600,33.200 309.836,33.200 310.125 C 33.200 310.413,33.515 310.998,33.900 311.425 C 34.285 311.851,34.855 312.695,35.168 313.300 C 35.480 313.905,35.885 314.400,36.068 314.400 C 36.250 314.400,36.400 314.670,36.400 315.000 C 36.400 315.330,36.580 315.600,36.800 315.600 C 37.020 315.600,37.200 315.870,37.200 316.200 C 37.200 316.530,37.380 316.800,37.600 316.800 C 37.820 316.800,38.000 317.030,38.000 317.312 C 38.000 317.593,38.360 318.083,38.800 318.400 C 39.240 318.717,39.600 319.207,39.600 319.488 C 39.600 319.770,39.780 320.000,40.000 320.000 C 40.220 320.000,40.400 320.206,40.400 320.457 C 40.400 320.708,40.940 321.429,41.600 322.060 C 42.260 322.691,42.800 323.390,42.800 323.614 C 42.800 323.957,43.852 325.262,45.816 327.356 C 46.045 327.600,46.540 328.250,46.915 328.800 C 49.049 331.926,69.968 352.855,72.215 354.113 C 73.000 354.551,74.467 355.761,75.841 357.100 C 76.348 357.595,76.863 358.000,76.985 358.000 C 77.189 358.000,78.988 359.499,80.227 360.700 C 80.511 360.975,80.936 361.200,81.171 361.200 C 81.407 361.200,81.600 361.380,81.600 361.600 C 81.600 361.820,81.870 362.000,82.200 362.000 C 82.530 362.000,82.800 362.180,82.800 362.400 C 82.800 362.620,83.070 362.800,83.400 362.800 C 83.730 362.800,84.000 362.980,84.000 363.200 C 84.000 363.420,84.270 363.600,84.600 363.600 C 84.930 363.600,85.200 363.780,85.200 364.000 C 85.200 364.220,85.388 364.400,85.618 364.400 C 85.848 364.400,86.486 364.850,87.036 365.400 C 87.586 365.950,88.195 366.400,88.390 366.400 C 88.584 366.400,88.981 366.635,89.271 366.922 C 89.562 367.210,90.609 367.885,91.598 368.422 C 92.586 368.960,93.576 369.546,93.798 369.724 C 94.019 369.902,94.830 370.433,95.600 370.904 C 96.370 371.376,97.933 372.335,99.073 373.035 C 100.213 373.736,101.698 374.553,102.373 374.852 C 103.048 375.151,103.600 375.531,103.600 375.698 C 103.600 375.864,103.960 376.000,104.400 376.000 C 104.840 376.000,105.200 376.180,105.200 376.400 C 105.200 376.620,105.560 376.800,106.000 376.800 C 106.440 376.800,106.800 376.980,106.800 377.200 C 106.800 377.420,107.160 377.600,107.600 377.600 C 108.040 377.600,108.400 377.755,108.400 377.943 C 108.400 378.389,121.396 384.800,122.300 384.800 C 122.492 384.800,123.395 385.160,124.306 385.600 C 125.216 386.040,126.204 386.400,126.501 386.400 C 126.797 386.400,127.211 386.567,127.420 386.771 C 127.898 387.237,136.313 390.000,137.255 390.000 C 137.639 390.000,138.064 390.180,138.200 390.400 C 138.336 390.620,138.876 390.800,139.400 390.800 C 139.924 390.800,140.464 390.980,140.600 391.200 C 140.736 391.420,141.287 391.600,141.824 391.600 C 142.361 391.600,142.800 391.780,142.800 392.000 C 142.800 392.220,143.520 392.400,144.400 392.400 C 145.280 392.400,146.000 392.580,146.000 392.800 C 146.000 393.020,146.720 393.200,147.600 393.200 C 148.480 393.200,149.200 393.380,149.200 393.600 C 149.200 393.820,149.819 394.000,150.576 394.000 C 151.333 394.000,152.064 394.180,152.200 394.400 C 152.336 394.620,153.056 394.800,153.800 394.800 C 154.544 394.800,155.264 394.980,155.400 395.200 C 155.536 395.420,156.256 395.600,157.000 395.600 C 157.744 395.600,158.464 395.780,158.600 396.000 C 158.736 396.220,159.816 396.400,161.000 396.400 C 162.184 396.400,163.264 396.580,163.400 396.800 C 163.536 397.020,164.627 397.200,165.824 397.200 C 167.021 397.200,168.000 397.380,168.000 397.600 C 168.000 397.825,169.125 398.000,170.576 398.000 C 171.993 398.000,173.264 398.180,173.400 398.400 C 173.540 398.627,175.537 398.800,178.024 398.800 C 180.675 398.800,182.400 398.958,182.400 399.200 C 182.400 399.461,188.667 399.600,200.400 399.600 C 212.133 399.600,218.400 399.461,218.400 399.200 C 218.400 398.956,220.259 398.800,223.176 398.800 C 225.929 398.800,228.058 398.631,228.200 398.400 C 228.336 398.180,229.686 398.000,231.200 398.000 C 232.714 398.000,234.064 397.820,234.200 397.600 C 234.336 397.380,235.416 397.200,236.600 397.200 C 237.784 397.200,238.864 397.020,239.000 396.800 C 239.136 396.580,240.036 396.400,241.000 396.400 C 241.964 396.400,242.864 396.220,243.000 396.000 C 243.136 395.780,244.036 395.600,245.000 395.600 C 245.964 395.600,246.864 395.420,247.000 395.200 C 247.136 394.980,247.867 394.800,248.624 394.800 C 249.381 394.800,250.000 394.620,250.000 394.400 C 250.000 394.180,250.720 394.000,251.600 394.000 C 252.480 394.000,253.200 393.820,253.200 393.600 C 253.200 393.380,253.740 393.200,254.400 393.200 C 255.060 393.200,255.600 393.020,255.600 392.800 C 255.600 392.580,256.142 392.400,256.805 392.400 C 257.468 392.400,258.323 392.238,258.705 392.039 C 259.087 391.840,260.210 391.460,261.200 391.193 C 262.190 390.927,263.360 390.562,263.800 390.383 C 264.240 390.204,266.130 389.573,268.000 388.979 C 269.870 388.386,271.571 387.743,271.780 387.550 C 271.989 387.358,272.563 387.200,273.056 387.200 C 273.549 387.200,274.064 387.020,274.200 386.800 C 274.336 386.580,274.703 386.400,275.016 386.400 C 275.329 386.400,277.163 385.662,279.093 384.761 C 281.022 383.859,282.960 382.982,283.400 382.811 C 285.189 382.118,288.209 380.581,288.333 380.300 C 288.407 380.135,288.812 380.000,289.233 380.000 C 289.655 380.000,290.000 379.820,290.000 379.600 C 290.000 379.380,290.360 379.200,290.800 379.200 C 291.240 379.200,291.600 379.020,291.600 378.800 C 291.600 378.580,291.960 378.400,292.400 378.400 C 292.840 378.400,293.200 378.220,293.200 378.000 C 293.200 377.780,293.560 377.600,294.000 377.600 C 294.440 377.600,294.800 377.420,294.800 377.200 C 294.800 376.980,295.160 376.800,295.600 376.800 C 296.040 376.800,296.400 376.662,296.400 376.494 C 296.400 376.326,297.075 375.875,297.900 375.492 C 299.559 374.722,300.483 374.202,304.835 371.591 C 306.466 370.613,307.860 369.675,307.933 369.506 C 308.007 369.338,308.412 369.200,308.833 369.200 C 309.255 369.200,309.600 369.042,309.600 368.849 C 309.600 368.655,310.140 368.273,310.800 368.000 C 311.460 367.727,312.000 367.357,312.000 367.178 C 312.000 367.000,312.315 366.754,312.700 366.631 C 313.085 366.509,313.850 366.002,314.400 365.504 C 314.950 365.007,315.895 364.345,316.500 364.032 C 317.105 363.720,317.600 363.315,317.600 363.132 C 317.600 362.950,317.870 362.800,318.200 362.800 C 318.530 362.800,318.800 362.650,318.800 362.468 C 318.800 362.285,319.292 361.880,319.893 361.568 C 320.494 361.255,321.511 360.505,322.152 359.900 C 322.794 359.295,323.490 358.800,323.699 358.800 C 323.908 358.800,324.556 358.298,325.140 357.685 C 325.723 357.072,327.289 355.739,328.620 354.724 C 329.951 353.708,332.403 351.554,334.069 349.938 C 335.734 348.322,338.696 345.458,340.649 343.574 C 345.635 338.762,354.088 329.780,355.868 327.400 C 356.691 326.300,357.867 324.923,358.482 324.340 C 359.097 323.756,359.601 323.126,359.602 322.940 C 359.603 322.753,360.143 322.025,360.802 321.322 C 361.461 320.619,362.000 319.936,362.000 319.805 C 362.000 319.674,362.360 319.180,362.800 318.708 C 363.240 318.236,363.600 317.613,363.600 317.325 C 363.600 317.036,363.738 316.800,363.906 316.800 C 364.074 316.800,364.656 316.080,365.200 315.200 C 365.744 314.320,366.305 313.600,366.446 313.600 C 366.587 313.600,366.927 313.060,367.200 312.400 C 367.473 311.740,367.811 311.200,367.949 311.200 C 368.088 311.200,368.649 310.345,369.197 309.300 C 369.744 308.255,370.340 307.220,370.520 307.000 C 370.700 306.780,371.233 305.970,371.704 305.200 C 372.176 304.430,373.135 302.867,373.835 301.727 C 374.536 300.587,375.353 299.102,375.652 298.427 C 375.951 297.752,376.331 297.200,376.498 297.200 C 376.664 297.200,376.800 296.840,376.800 296.400 C 376.800 295.960,376.980 295.600,377.200 295.600 C 377.420 295.600,377.600 295.240,377.600 294.800 C 377.600 294.360,377.755 294.000,377.945 294.000 C 378.245 294.000,383.570 283.594,384.393 281.400 C 384.833 280.226,385.414 278.839,386.360 276.704 C 386.822 275.662,387.200 274.573,387.200 274.284 C 387.200 273.996,387.361 273.589,387.558 273.380 C 387.754 273.171,388.582 270.840,389.397 268.200 C 390.212 265.560,391.041 263.087,391.239 262.705 C 391.438 262.323,391.600 261.659,391.600 261.229 C 391.600 260.799,391.780 260.336,392.000 260.200 C 392.220 260.064,392.400 259.524,392.400 259.000 C 392.400 258.476,392.580 257.936,392.800 257.800 C 393.020 257.664,393.200 256.933,393.200 256.176 C 393.200 255.419,393.380 254.800,393.600 254.800 C 393.820 254.800,394.000 254.080,394.000 253.200 C 394.000 252.320,394.180 251.600,394.400 251.600 C 394.620 251.600,394.800 250.981,394.800 250.224 C 394.800 249.467,394.980 248.736,395.200 248.600 C 395.420 248.464,395.600 247.744,395.600 247.000 C 395.600 246.256,395.780 245.536,396.000 245.400 C 396.220 245.264,396.400 244.544,396.400 243.800 C 396.400 243.056,396.580 242.336,396.800 242.200 C 397.020 242.064,397.200 240.984,397.200 239.800 C 397.200 238.616,397.380 237.536,397.600 237.400 C 397.820 237.264,398.000 236.184,398.000 235.000 C 398.000 233.816,398.180 232.736,398.400 232.600 C 398.623 232.462,398.800 230.596,398.800 228.376 C 398.800 225.992,398.960 224.400,399.200 224.400 C 399.462 224.400,399.600 215.867,399.600 199.600 C 399.600 183.333,399.462 174.800,399.200 174.800 C 398.963 174.800,398.800 173.341,398.800 171.224 C 398.800 169.257,398.620 167.536,398.400 167.400 C 398.180 167.264,398.000 166.184,398.000 165.000 C 398.000 163.816,397.820 162.736,397.600 162.600 C 397.380 162.464,397.200 161.564,397.200 160.600 C 397.200 159.636,397.020 158.736,396.800 158.600 C 396.580 158.464,396.400 157.564,396.400 156.600 C 396.400 155.636,396.220 154.736,396.000 154.600 C 395.780 154.464,395.600 153.553,395.600 152.576 C 395.600 151.599,395.420 150.800,395.200 150.800 C 394.980 150.800,394.800 150.260,394.800 149.600 C 394.800 148.940,394.620 148.400,394.400 148.400 C 394.180 148.400,394.000 147.680,394.000 146.800 C 394.000 145.920,393.820 145.200,393.600 145.200 C 393.380 145.200,393.200 144.660,393.200 144.000 C 393.200 143.340,393.020 142.800,392.800 142.800 C 392.580 142.800,392.400 142.181,392.400 141.424 C 392.400 140.667,392.220 139.936,392.000 139.800 C 391.780 139.664,391.600 139.124,391.600 138.600 C 391.600 138.076,391.420 137.536,391.200 137.400 C 390.980 137.264,390.800 136.801,390.800 136.371 C 390.800 135.941,390.637 135.277,390.437 134.895 C 390.237 134.513,389.797 133.300,389.460 132.200 C 388.475 128.993,387.131 125.431,386.751 125.020 C 386.558 124.811,386.400 124.395,386.400 124.095 C 386.400 123.795,385.842 122.346,385.160 120.875 C 383.299 116.861,382.525 115.137,381.937 113.700 C 381.644 112.985,381.269 112.400,381.102 112.400 C 380.936 112.400,380.800 112.040,380.800 111.600 C 380.800 111.160,380.620 110.800,380.400 110.800 C 380.180 110.800,380.000 110.440,380.000 110.000 C 380.000 109.560,379.820 109.200,379.600 109.200 C 379.380 109.200,379.200 108.855,379.200 108.433 C 379.200 108.012,379.064 107.607,378.898 107.533 C 378.732 107.460,377.975 106.140,377.216 104.600 C 376.456 103.060,375.332 101.048,374.717 100.128 C 374.103 99.208,373.600 98.278,373.600 98.061 C 373.600 97.844,373.465 97.607,373.300 97.533 C 373.135 97.460,372.460 96.366,371.800 95.101 C 371.140 93.837,370.465 92.802,370.300 92.801 C 370.135 92.801,370.000 92.552,370.000 92.249 C 370.000 91.946,369.727 91.471,369.393 91.194 C 369.059 90.917,368.498 90.085,368.147 89.345 C 367.796 88.605,367.349 88.000,367.154 88.000 C 366.959 88.000,366.800 87.775,366.799 87.500 C 366.799 87.225,366.259 86.370,365.600 85.600 C 364.941 84.830,364.401 83.975,364.401 83.700 C 364.400 83.425,364.259 83.200,364.086 83.200 C 363.914 83.200,363.457 82.667,363.072 82.015 C 362.687 81.363,362.153 80.593,361.886 80.305 C 360.933 79.277,358.800 76.443,358.800 76.205 C 358.800 76.072,358.395 75.554,357.900 75.053 C 357.405 74.553,356.370 73.350,355.600 72.381 C 354.830 71.412,353.480 69.807,352.600 68.815 C 350.475 66.417,334.635 50.633,332.314 48.600 C 331.309 47.720,329.928 46.508,329.244 45.906 C 328.560 45.305,328.000 44.893,328.000 44.991 C 328.000 45.089,327.294 44.456,326.431 43.584 C 325.569 42.713,324.651 42.000,324.392 42.000 C 324.133 42.000,323.417 41.460,322.800 40.800 C 322.183 40.140,321.573 39.600,321.444 39.600 C 321.211 39.600,320.000 38.665,318.984 37.700 C 318.694 37.425,318.264 37.200,318.029 37.200 C 317.793 37.200,317.600 37.020,317.600 36.800 C 317.600 36.580,317.375 36.400,317.100 36.399 C 316.825 36.399,315.970 35.859,315.200 35.200 C 314.430 34.541,313.575 34.001,313.300 34.001 C 313.025 34.000,312.800 33.850,312.800 33.668 C 312.800 33.485,312.305 33.080,311.700 32.768 C 311.095 32.455,310.420 32.058,310.200 31.885 C 309.762 31.541,305.841 29.057,303.561 27.680 C 302.770 27.202,302.005 26.928,301.861 27.072 C 301.718 27.216,301.600 27.123,301.600 26.867 C 301.600 26.610,301.330 26.400,301.000 26.400 C 300.670 26.400,300.400 26.220,300.400 26.000 C 300.400 25.780,300.040 25.600,299.600 25.600 C 299.160 25.600,298.800 25.447,298.800 25.260 C 298.800 25.073,297.585 24.309,296.100 23.562 C 294.615 22.815,293.340 22.068,293.267 21.902 C 293.193 21.736,292.788 21.600,292.367 21.600 C 291.945 21.600,291.600 21.420,291.600 21.200 C 291.600 20.980,291.240 20.800,290.800 20.800 C 290.360 20.800,290.000 20.620,290.000 20.400 C 290.000 20.180,289.640 20.000,289.200 20.000 C 288.760 20.000,288.400 19.820,288.400 19.600 C 288.400 19.380,288.120 19.200,287.778 19.200 C 287.436 19.200,286.131 18.684,284.878 18.053 C 280.458 15.828,277.262 14.400,276.701 14.400 C 276.389 14.400,275.998 14.265,275.833 14.100 C 275.668 13.935,275.413 13.787,275.267 13.771 C 274.948 13.737,272.899 12.870,271.861 12.329 C 271.455 12.118,271.027 12.040,270.910 12.156 C 270.794 12.273,270.200 12.110,269.590 11.795 C 267.956 10.950,262.588 9.200,261.629 9.200 C 261.173 9.200,260.800 9.020,260.800 8.800 C 260.800 8.580,260.170 8.400,259.400 8.400 C 258.630 8.400,258.000 8.220,258.000 8.000 C 258.000 7.780,257.460 7.600,256.800 7.600 C 256.140 7.600,255.600 7.457,255.600 7.282 C 255.600 7.107,254.930 6.918,254.112 6.863 C 253.294 6.808,252.529 6.633,252.412 6.473 C 252.295 6.313,251.570 6.124,250.800 6.051 C 250.030 5.979,249.310 5.802,249.200 5.658 C 249.090 5.515,248.460 5.337,247.800 5.264 C 247.140 5.191,246.429 4.967,246.220 4.766 C 246.011 4.565,245.077 4.400,244.144 4.400 C 243.211 4.400,242.360 4.259,242.254 4.087 C 242.148 3.915,241.465 3.729,240.737 3.674 C 240.009 3.618,239.239 3.399,239.027 3.187 C 238.814 2.974,237.517 2.800,236.144 2.800 C 234.771 2.800,233.536 2.620,233.400 2.400 C 233.264 2.180,232.094 2.000,230.800 2.000 C 229.506 2.000,228.336 1.820,228.200 1.600 C 228.056 1.367,225.804 1.200,222.800 1.200 C 219.796 1.200,217.544 1.033,217.400 0.800 C 217.060 0.250,184.000 0.250,184.000 0.800 M235.600 127.320 C 235.600 159.858,235.713 169.953,236.080 170.320 C 236.447 170.687,246.631 170.800,279.480 170.800 L 322.400 170.800 322.400 202.800 L 322.400 234.800 279.600 234.850 C 256.060 234.878,236.575 234.923,236.300 234.950 C 235.904 234.990,235.779 244.013,235.698 278.300 L 235.596 321.600 203.598 321.600 L 171.600 321.600 171.600 278.771 C 171.600 242.187,171.517 235.860,171.029 235.371 C 170.541 234.883,164.267 234.800,128.029 234.800 L 85.600 234.800 85.600 202.800 L 85.600 170.800 128.120 170.800 C 160.658 170.800,170.753 170.687,171.120 170.320 C 171.487 169.953,171.600 159.858,171.600 127.320 L 171.600 84.800 203.600 84.800 L 235.600 84.800 235.600 127.320 " stroke="none" fill="#848484" fill-rule="evenodd"></path><path id="path1" d="" stroke="none" fill="#888484" fill-rule="evenodd"></path><path id="path2" d="" stroke="none" fill="#888484" fill-rule="evenodd"></path><path id="path3" d="" stroke="none" fill="#888484" fill-rule="evenodd"></path><path id="path4" d="" stroke="none" fill="#888484" fill-rule="evenodd"></path></g></svg>